<svg aria-hidden="true" style="position: absolute; width: 0; height: 0; overflow: hidden;" version="1.1" xmlns="http://www.w3.org/2000/svg" xmlns:xlink="http://www.w3.org/1999/xlink">
<defs>
<symbol id="panelTruck" viewBox="0 0 32 32">
<path d="M12 2h-10v28h10v-28zM30 2h-10v10h10v-10zM30 20v10h-10v-10h10zM0 2c0-0.53 0.211-1.039 0.586-1.414s0.884-0.586 1.414-0.586h10c0.53 0 1.039 0.211 1.414 0.586s0.586 0.884 0.586 1.414v28c0 0.53-0.211 1.039-0.586 1.414s-0.884 0.586-1.414 0.586h-10c-0.53 0-1.039-0.211-1.414-0.586s-0.586-0.884-0.586-1.414v-28zM18 2c0-0.53 0.211-1.039 0.586-1.414s0.884-0.586 1.414-0.586h10c0.53 0 1.039 0.211 1.414 0.586s0.586 0.884 0.586 1.414v10c0 0.53-0.211 1.039-0.586 1.414s-0.884 0.586-1.414 0.586h-10c-0.53 0-1.039-0.211-1.414-0.586s-0.586-0.884-0.586-1.414v-10zM20 18c-0.53 0-1.039 0.211-1.414 0.586s-0.586 0.884-0.586 1.414v10c0 0.53 0.211 1.039 0.586 1.414s0.884 0.586 1.414 0.586h10c0.53 0 1.039-0.211 1.414-0.586s0.586-0.884 0.586-1.414v-10c0-0.53-0.211-1.039-0.586-1.414s-0.884-0.586-1.414-0.586h-10z"></path>
</symbol>
<symbol id="alcove" viewBox="0 0 32 32">
<path d="M8 4v4h-4v-4h4zM10 28v-4c0-0.53-0.211-1.039-0.586-1.414s-0.884-0.586-1.414-0.586h-4c-0.53 0-1.039 0.211-1.414 0.586s-0.586 0.884-0.586 1.414v4c0 0.53 0.211 1.039 0.586 1.414s0.884 0.586 1.414 0.586h4c0.53 0 1.039-0.211 1.414-0.586s0.586-0.884 0.586-1.414zM10 18v-4c0-0.53-0.211-1.039-0.586-1.414s-0.884-0.586-1.414-0.586h-4c-0.53 0-1.039 0.211-1.414 0.586s-0.586 0.884-0.586 1.414v4c0 0.53 0.211 1.039 0.586 1.414s0.884 0.586 1.414 0.586h4c0.53 0 1.039-0.211 1.414-0.586s0.586-0.884 0.586-1.414zM10 8v-4c0-0.53-0.211-1.039-0.586-1.414s-0.884-0.586-1.414-0.586h-4c-0.53 0-1.039 0.211-1.414 0.586s-0.586 0.884-0.586 1.414v4c0 0.53 0.211 1.039 0.586 1.414s0.884 0.586 1.414 0.586h4c0.53 0 1.039-0.211 1.414-0.586s0.586-0.884 0.586-1.414zM20 28v-4c0-0.53-0.211-1.039-0.586-1.414s-0.884-0.586-1.414-0.586h-4c-0.53 0-1.039 0.211-1.414 0.586s-0.586 0.884-0.586 1.414v4c0 0.53 0.211 1.039 0.586 1.414s0.884 0.586 1.414 0.586h4c0.53 0 1.039-0.211 1.414-0.586s0.586-0.884 0.586-1.414zM20 18v-4c0-0.53-0.211-1.039-0.586-1.414s-0.884-0.586-1.414-0.586h-4c-0.53 0-1.039 0.211-1.414 0.586s-0.586 0.884-0.586 1.414v4c0 0.53 0.211 1.039 0.586 1.414s0.884 0.586 1.414 0.586h4c0.53 0 1.039-0.211 1.414-0.586s0.586-0.884 0.586-1.414zM20 8v-4c0-0.53-0.211-1.039-0.586-1.414s-0.884-0.586-1.414-0.586h-4c-0.53 0-1.039 0.211-1.414 0.586s-0.586 0.884-0.586 1.414v4c0 0.53 0.211 1.039 0.586 1.414s0.884 0.586 1.414 0.586h4c0.53 0 1.039-0.211 1.414-0.586s0.586-0.884 0.586-1.414zM18 4v4h-4v-4h4zM28 4v4h-4v-4h4zM8 14v4h-4v-4h4zM18 14v4h-4v-4h4zM28 14h-4v4h4v-4zM8 24v4h-4v-4h4zM18 24v4h-4v-4h4zM28 24v4h-4v-4h4zM24 2c-0.53 0-1.039 0.211-1.414 0.586s-0.586 0.884-0.586 1.414v4c0 0.53 0.211 1.039 0.586 1.414s0.884 0.586 1.414 0.586h4c0.53 0 1.039-0.211 1.414-0.586s0.586-0.884 0.586-1.414v-4c0-0.53-0.211-1.039-0.586-1.414s-0.884-0.586-1.414-0.586h-4zM22 14c0-0.53 0.211-1.039 0.586-1.414s0.884-0.586 1.414-0.586h4c0.53 0 1.039 0.211 1.414 0.586s0.586 0.884 0.586 1.414v4c0 0.53-0.211 1.039-0.586 1.414s-0.884 0.586-1.414 0.586h-4c-0.53 0-1.039-0.211-1.414-0.586s-0.586-0.884-0.586-1.414v-4zM24 22c-0.53 0-1.039 0.211-1.414 0.586s-0.586 0.884-0.586 1.414v4c0 0.53 0.211 1.039 0.586 1.414s0.884 0.586 1.414 0.586h4c0.53 0 1.039-0.211 1.414-0.586s0.586-0.884 0.586-1.414v-4c0-0.53-0.211-1.039-0.586-1.414s-0.884-0.586-1.414-0.586h-4z"></path>
</symbol>
<symbol id="fully" viewBox="0 0 32 32">
<path d="M2 5c0-0.796 0.316-1.559 0.879-2.121s1.326-0.879 2.121-0.879h6c0.796 0 1.559 0.316 2.121 0.879s0.879 1.326 0.879 2.121v6c0 0.796-0.316 1.559-0.879 2.121s-1.326 0.879-2.121 0.879h-6c-0.796 0-1.559-0.316-2.121-0.879s-0.879-1.326-0.879-2.121v-6zM5 4c-0.265 0-0.52 0.105-0.707 0.293s-0.293 0.442-0.293 0.707v6c0 0.265 0.105 0.52 0.293 0.707s0.442 0.293 0.707 0.293h6c0.265 0 0.52-0.105 0.707-0.293s0.293-0.442 0.293-0.707v-6c0-0.265-0.105-0.52-0.293-0.707s-0.442-0.293-0.707-0.293h-6zM18 5c0-0.796 0.316-1.559 0.879-2.121s1.326-0.879 2.121-0.879h6c0.796 0 1.559 0.316 2.121 0.879s0.879 1.326 0.879 2.121v6c0 0.796-0.316 1.559-0.879 2.121s-1.326 0.879-2.121 0.879h-6c-0.796 0-1.559-0.316-2.121-0.879s-0.879-1.326-0.879-2.121v-6zM21 4c-0.265 0-0.52 0.105-0.707 0.293s-0.293 0.442-0.293 0.707v6c0 0.265 0.105 0.52 0.293 0.707s0.442 0.293 0.707 0.293h6c0.265 0 0.52-0.105 0.707-0.293s0.293-0.442 0.293-0.707v-6c0-0.265-0.105-0.52-0.293-0.707s-0.442-0.293-0.707-0.293h-6zM2 21c0-0.796 0.316-1.559 0.879-2.121s1.326-0.879 2.121-0.879h6c0.796 0 1.559 0.316 2.121 0.879s0.879 1.326 0.879 2.121v6c0 0.796-0.316 1.559-0.879 2.121s-1.326 0.879-2.121 0.879h-6c-0.796 0-1.559-0.316-2.121-0.879s-0.879-1.326-0.879-2.121v-6zM5 20c-0.265 0-0.52 0.105-0.707 0.293s-0.293 0.442-0.293 0.707v6c0 0.265 0.105 0.52 0.293 0.707s0.442 0.293 0.707 0.293h6c0.265 0 0.52-0.105 0.707-0.293s0.293-0.442 0.293-0.707v-6c0-0.265-0.105-0.52-0.293-0.707s-0.442-0.293-0.707-0.293h-6zM18 21c0-0.796 0.316-1.559 0.879-2.121s1.326-0.879 2.121-0.879h6c0.796 0 1.559 0.316 2.121 0.879s0.879 1.326 0.879 2.121v6c0 0.796-0.316 1.559-0.879 2.121s-1.326 0.879-2.121 0.879h-6c-0.796 0-1.559-0.316-2.121-0.879s-0.879-1.326-0.879-2.121v-6zM21 20c-0.265 0-0.52 0.105-0.707 0.293s-0.293 0.442-0.293 0.707v6c0 0.265 0.105 0.52 0.293 0.707s0.442 0.293 0.707 0.293h6c0.265 0 0.52-0.105 0.707-0.293s0.293-0.442 0.293-0.707v-6c0-0.265-0.105-0.52-0.293-0.707s-0.442-0.293-0.707-0.293h-6z"></path>
</symbol>
<symbol id="kitchen" viewBox="0 0 32 32">
<path d="M1 12c-0.15 0-0.297 0.034-0.432 0.098s-0.254 0.159-0.347 0.276c-0.094 0.117-0.16 0.253-0.194 0.399s-0.035 0.297-0.003 0.443l3.304 14.868c0.247 1.11 0.865 2.104 1.752 2.816s1.991 1.1 3.128 1.1h11.584c1.138-0 2.241-0.388 3.128-1.1s1.505-1.705 1.752-2.816l0.262-1.18c1.53 0.286 3.111-0.033 4.41-0.891s2.213-2.186 2.551-3.706c0.337-1.519 0.071-3.11-0.742-4.437s-2.111-2.285-3.618-2.674l0.442-1.98c0.032-0.146 0.031-0.298-0.003-0.443s-0.1-0.282-0.194-0.399c-0.094-0.117-0.212-0.211-0.347-0.276s-0.283-0.098-0.432-0.098h-26zM26 25c-0.212 0-0.423-0.017-0.632-0.050l1.734-7.796c0.925 0.268 1.722 0.86 2.246 1.669s0.738 1.778 0.604 2.732c-0.134 0.954-0.607 1.827-1.333 2.46s-1.656 0.983-2.619 0.985zM5.28 27.65l-3.034-13.65h23.508l-3.034 13.65c-0.148 0.666-0.519 1.262-1.051 1.69s-1.195 0.66-1.877 0.66h-11.584c-0.683-0-1.345-0.233-1.877-0.66s-0.903-1.023-1.051-1.69z"></path>
<path d="M8.8 1.6l-0.006 0.008-0.028 0.038c-0.146 0.2-0.282 0.407-0.408 0.62-0.107 0.171-0.202 0.349-0.282 0.534-0.052 0.12-0.068 0.184-0.074 0.206v0.008c0.023 0.177 0.085 0.346 0.182 0.496 0.15 0.266 0.356 0.544 0.616 0.89l0.020 0.024c0.236 0.316 0.52 0.694 0.74 1.086 0.224 0.4 0.44 0.91 0.44 1.49 0 0.376-0.13 0.736-0.238 0.988-0.116 0.268-0.251 0.527-0.404 0.776-0.157 0.262-0.326 0.517-0.506 0.764l-0.036 0.050-0.010 0.016-0.004 0.004c-0.159 0.212-0.396 0.353-0.658 0.391s-0.529-0.030-0.742-0.189-0.353-0.396-0.391-0.658c-0.038-0.263 0.030-0.529 0.189-0.742l0.006-0.008 0.028-0.038c0.146-0.2 0.282-0.407 0.408-0.62 0.107-0.171 0.202-0.349 0.282-0.534 0.052-0.12 0.068-0.184 0.074-0.206-0.021-0.179-0.083-0.352-0.18-0.504-0.186-0.31-0.392-0.608-0.618-0.89l-0.020-0.024c-0.27-0.345-0.517-0.708-0.74-1.086-0.272-0.451-0.424-0.964-0.44-1.49 0-0.376 0.13-0.736 0.238-0.988 0.118-0.276 0.268-0.548 0.404-0.776 0.159-0.261 0.328-0.516 0.506-0.764l0.050-0.070c0.159-0.212 0.396-0.353 0.658-0.391s0.529 0.030 0.742 0.189c0.212 0.159 0.353 0.396 0.391 0.658s-0.030 0.529-0.189 0.742zM14.8 1.6l-0.006 0.008-0.028 0.038c-0.146 0.2-0.282 0.407-0.408 0.62-0.107 0.171-0.202 0.349-0.282 0.534-0.052 0.12-0.068 0.184-0.074 0.206v0.008c0.023 0.177 0.085 0.346 0.182 0.496 0.15 0.266 0.356 0.544 0.616 0.89l0.020 0.024c0.236 0.316 0.52 0.694 0.74 1.086 0.224 0.4 0.44 0.91 0.44 1.49 0 0.376-0.13 0.736-0.238 0.988-0.116 0.268-0.251 0.527-0.404 0.776-0.157 0.262-0.326 0.517-0.506 0.764l-0.036 0.050-0.010 0.016-0.004 0.004c-0.159 0.212-0.396 0.353-0.658 0.391s-0.529-0.030-0.742-0.189-0.353-0.396-0.391-0.658c-0.038-0.263 0.030-0.529 0.189-0.742l0.006-0.008 0.028-0.038c0.146-0.2 0.282-0.407 0.408-0.62 0.107-0.171 0.202-0.349 0.282-0.534 0.052-0.12 0.068-0.184 0.074-0.206-0.021-0.179-0.083-0.352-0.18-0.504-0.186-0.31-0.392-0.608-0.618-0.89l-0.020-0.024c-0.27-0.345-0.517-0.708-0.74-1.086-0.272-0.451-0.424-0.964-0.44-1.49 0-0.376 0.13-0.736 0.238-0.988 0.118-0.276 0.268-0.548 0.404-0.776 0.159-0.261 0.328-0.516 0.506-0.764l0.050-0.070c0.159-0.212 0.396-0.353 0.658-0.391s0.529 0.030 0.742 0.189 0.353 0.396 0.391 0.658c0.038 0.263-0.030 0.529-0.189 0.742zM20.8 1.6l-0.006 0.008-0.028 0.038c-0.145 0.2-0.282 0.407-0.408 0.62-0.107 0.171-0.202 0.349-0.282 0.534-0.052 0.12-0.068 0.184-0.074 0.206v0.008c0.023 0.177 0.085 0.346 0.182 0.496 0.15 0.266 0.356 0.544 0.616 0.89l0.020 0.024c0.236 0.316 0.52 0.694 0.74 1.086 0.224 0.4 0.44 0.91 0.44 1.49 0 0.376-0.13 0.736-0.238 0.988-0.116 0.268-0.251 0.527-0.404 0.776-0.156 0.262-0.324 0.517-0.504 0.764l-0.038 0.050-0.010 0.016-0.004 0.004c-0.159 0.212-0.396 0.353-0.658 0.391s-0.529-0.030-0.742-0.189-0.353-0.396-0.391-0.658c-0.038-0.263 0.030-0.529 0.189-0.742l0.006-0.008 0.028-0.038c0.145-0.2 0.282-0.407 0.408-0.62 0.107-0.171 0.202-0.349 0.282-0.534 0.052-0.12 0.068-0.184 0.074-0.206-0.021-0.179-0.083-0.352-0.18-0.504-0.186-0.31-0.392-0.608-0.618-0.89l-0.020-0.024c-0.27-0.345-0.517-0.708-0.74-1.086-0.272-0.451-0.424-0.964-0.44-1.49 0-0.376 0.13-0.736 0.238-0.988 0.118-0.276 0.268-0.548 0.404-0.776 0.159-0.261 0.328-0.516 0.506-0.764l0.050-0.070c0.159-0.212 0.396-0.353 0.658-0.391s0.529 0.030 0.742 0.189 0.353 0.396 0.391 0.658c0.038 0.263-0.030 0.529-0.189 0.742z"></path>
</symbol>
<symbol id="transmission" viewBox="0 0 32 32">
<path d="M12 7c0-0.796 0.316-1.559 0.879-2.121s1.326-0.879 2.121-0.879h2c0.796 0 1.559 0.316 2.121 0.879s0.879 1.326 0.879 2.121v2c0 0.796-0.316 1.559-0.879 2.121s-1.326 0.879-2.121 0.879v2h11c0.265 0 0.52 0.105 0.707 0.293s0.293 0.442 0.293 0.707v2c0 0.265-0.105 0.52-0.293 0.707s-0.442 0.293-0.707 0.293c-0.265 0-0.52-0.105-0.707-0.293s-0.293-0.442-0.293-0.707v-1h-10v1c0 0.265-0.105 0.52-0.293 0.707s-0.442 0.293-0.707 0.293c-0.265 0-0.52-0.105-0.707-0.293s-0.293-0.442-0.293-0.707v-1h-10v1c0 0.265-0.105 0.52-0.293 0.707s-0.442 0.293-0.707 0.293c-0.265 0-0.52-0.105-0.707-0.293s-0.293-0.442-0.293-0.707v-2c0-0.265 0.105-0.52 0.293-0.707s0.442-0.293 0.707-0.293h11v-2c-0.796 0-1.559-0.316-2.121-0.879s-0.879-1.326-0.879-2.121v-2zM17 10c0.265 0 0.52-0.105 0.707-0.293s0.293-0.442 0.293-0.707v-2c0-0.265-0.105-0.52-0.293-0.707s-0.442-0.293-0.707-0.293h-2c-0.265 0-0.52 0.105-0.707 0.293s-0.293 0.442-0.293 0.707v2c0 0.265 0.105 0.52 0.293 0.707s0.442 0.293 0.707 0.293h2zM0 23c0-0.796 0.316-1.559 0.879-2.121s1.326-0.879 2.121-0.879h2c0.796 0 1.559 0.316 2.121 0.879s0.879 1.326 0.879 2.121v2c0 0.796-0.316 1.559-0.879 2.121s-1.326 0.879-2.121 0.879h-2c-0.796 0-1.559-0.316-2.121-0.879s-0.879-1.326-0.879-2.121v-2zM3 22c-0.265 0-0.52 0.105-0.707 0.293s-0.293 0.442-0.293 0.707v2c0 0.265 0.105 0.52 0.293 0.707s0.442 0.293 0.707 0.293h2c0.265 0 0.52-0.105 0.707-0.293s0.293-0.442 0.293-0.707v-2c0-0.265-0.105-0.52-0.293-0.707s-0.442-0.293-0.707-0.293h-2zM12 23c0-0.796 0.316-1.559 0.879-2.121s1.326-0.879 2.121-0.879h2c0.796 0 1.559 0.316 2.121 0.879s0.879 1.326 0.879 2.121v2c0 0.796-0.316 1.559-0.879 2.121s-1.326 0.879-2.121 0.879h-2c-0.796 0-1.559-0.316-2.121-0.879s-0.879-1.326-0.879-2.121v-2zM15 22c-0.265 0-0.52 0.105-0.707 0.293s-0.293 0.442-0.293 0.707v2c0 0.265 0.105 0.52 0.293 0.707s0.442 0.293 0.707 0.293h2c0.265 0 0.52-0.105 0.707-0.293s0.293-0.442 0.293-0.707v-2c0-0.265-0.105-0.52-0.293-0.707s-0.442-0.293-0.707-0.293h-2zM24 23c0-0.796 0.316-1.559 0.879-2.121s1.326-0.879 2.121-0.879h2c0.796 0 1.559 0.316 2.121 0.879s0.879 1.326 0.879 2.121v2c0 0.796-0.316 1.559-0.879 2.121s-1.326 0.879-2.121 0.879h-2c-0.796 0-1.559-0.316-2.121-0.879s-0.879-1.326-0.879-2.121v-2zM27 22c-0.265 0-0.52 0.105-0.707 0.293s-0.293 0.442-0.293 0.707v2c0 0.265 0.105 0.52 0.293 0.707s0.442 0.293 0.707 0.293h2c0.265 0 0.52-0.105 0.707-0.293s0.293-0.442 0.293-0.707v-2c0-0.265-0.105-0.52-0.293-0.707s-0.442-0.293-0.707-0.293h-2z"></path>
</symbol>
<symbol id="engine" viewBox="0 0 32 32">
<path d="M6 5c0-0.265 0.105-0.52 0.293-0.707s0.442-0.293 0.707-0.293h10c0.265 0 0.52 0.105 0.707 0.293s0.293 0.442 0.293 0.707v10c0 0.265-0.105 0.52-0.293 0.707s-0.442 0.293-0.707 0.293h-10c-0.265 0-0.52-0.105-0.707-0.293s-0.293-0.442-0.293-0.707v-10z"></path>
<path d="M2 4c0-1.061 0.421-2.078 1.172-2.828s1.768-1.172 2.828-1.172h12c1.061 0 2.078 0.421 2.828 1.172s1.172 1.768 1.172 2.828v16c1.061 0 2.078 0.421 2.828 1.172s1.172 1.768 1.172 2.828v1c0 0.265 0.105 0.52 0.293 0.707s0.442 0.293 0.707 0.293 0.52-0.105 0.707-0.293c0.188-0.188 0.293-0.442 0.293-0.707v-9h-1c-0.265 0-0.52-0.105-0.707-0.293s-0.293-0.442-0.293-0.707v-6.25c0-0.265 0.105-0.52 0.293-0.707s0.442-0.293 0.707-0.293h2.99c-0.022-0.952-0.106-1.788-0.402-2.444-0.158-0.381-0.435-0.702-0.788-0.916-0.368-0.22-0.928-0.39-1.8-0.39-0.265 0-0.52-0.105-0.707-0.293s-0.293-0.442-0.293-0.707 0.105-0.52 0.293-0.707c0.188-0.188 0.442-0.293 0.707-0.293 1.128-0.003 2.069 0.221 2.824 0.672 0.766 0.456 1.268 1.102 1.588 1.814 0.59 1.31 0.588 2.93 0.588 4.162v6.35c0 0.132-0.025 0.262-0.076 0.383s-0.124 0.232-0.217 0.325c-0.093 0.093-0.203 0.167-0.325 0.217s-0.252 0.076-0.383 0.076h-1v9c0 0.796-0.316 1.559-0.879 2.121s-1.326 0.879-2.121 0.879-1.559-0.316-2.121-0.879c-0.563-0.563-0.879-1.326-0.879-2.121v-1c0-0.53-0.211-1.039-0.586-1.414s-0.884-0.586-1.414-0.586v8h1c0.265 0 0.52 0.105 0.707 0.293s0.293 0.442 0.293 0.707-0.105 0.52-0.293 0.707c-0.188 0.188-0.442 0.293-0.707 0.293h-22c-0.265 0-0.52-0.105-0.707-0.293s-0.293-0.442-0.293-0.707 0.105-0.52 0.293-0.707c0.188-0.188 0.442-0.293 0.707-0.293h1v-26zM20 4c0-0.53-0.211-1.039-0.586-1.414s-0.884-0.586-1.414-0.586h-12c-0.53 0-1.039 0.211-1.414 0.586s-0.586 0.884-0.586 1.414v26h16v-26z"></path>
</symbol>
<symbol id="gas" viewBox="0 0 32 32">
<path d="M6.347 1.528c-1.245 0.13-1.772 0.259-2.503 0.614-0.473 0.229-0.621 0.334-0.994 0.708-0.374 0.373-0.479 0.521-0.708 0.994-0.287 0.592-0.44 1.113-0.552 1.889-0.102 0.704-0.102 19.83 0 20.534 0.112 0.776 0.265 1.297 0.552 1.889 0.229 0.473 0.334 0.621 0.708 0.994s0.52 0.479 0.994 0.708c0.576 0.279 0.931 0.39 1.703 0.531 0.396 0.072 1.656 0.086 9.973 0.104 6.873 0.016 9.716 0.005 10.226-0.039 1.020-0.089 1.739-0.266 2.408-0.593 0.473-0.231 0.625-0.339 0.996-0.711 0.372-0.372 0.48-0.523 0.712-0.996 0.31-0.635 0.496-1.368 0.588-2.31 0.078-0.805 0.078-18.883 0-19.688-0.092-0.942-0.278-1.675-0.588-2.31-0.232-0.473-0.34-0.624-0.712-0.996-0.373-0.374-0.52-0.479-0.994-0.708-0.576-0.279-0.931-0.39-1.703-0.531-0.398-0.073-1.639-0.084-10.186-0.093-5.354-0.005-9.818 0-9.92 0.010zM25.056 3.894c2.488 0.151 2.899 0.562 3.050 3.050 0.070 1.153 0.070 16.959 0 18.112-0.151 2.488-0.562 2.899-3.050 3.050-1.153 0.070-16.959 0.070-18.112 0-2.488-0.151-2.899-0.562-3.050-3.050-0.070-1.153-0.070-16.959 0-18.112 0.106-1.743 0.367-2.385 1.101-2.71 0.389-0.172 1.021-0.289 1.816-0.337 1.036-0.062 17.226-0.065 18.245-0.003zM15.52 5.578c-0.409 0.178-0.64 0.514-0.689 1.003l-0.031 0.315-0.427 0.117c-2.36 0.648-4.045 2.334-4.693 4.694l-0.117 0.426-0.315 0.031c-0.357 0.036-0.57 0.132-0.779 0.351-0.413 0.436-0.413 1.201 0 1.636 0.209 0.22 0.422 0.316 0.781 0.351l0.316 0.031 0.116 0.427c0.642 2.357 2.334 4.049 4.691 4.691l0.427 0.116 0.031 0.317c0.035 0.358 0.131 0.571 0.351 0.78 0.436 0.414 1.2 0.414 1.636 0 0.219-0.208 0.316-0.422 0.351-0.779l0.031-0.314 0.267-0.074c1.506-0.415 2.554-1.048 3.457-2.086 0.69-0.794 1.11-1.613 1.44-2.811l0.073-0.267 0.315-0.031c0.357-0.035 0.57-0.131 0.779-0.351 0.413-0.435 0.413-1.2 0-1.636-0.209-0.219-0.422-0.315-0.779-0.351l-0.315-0.031-0.073-0.266c-0.384-1.383-0.877-2.268-1.754-3.144-0.835-0.836-1.791-1.383-2.983-1.707l-0.427-0.116-0.031-0.317c-0.049-0.497-0.282-0.832-0.701-1.007-0.249-0.104-0.704-0.103-0.948 0.002zM15.092 9.438c0.031 0.058 0.17 0.172 0.309 0.254 0.208 0.122 0.314 0.148 0.599 0.146 0.388-0.002 0.625-0.1 0.868-0.36l0.149-0.16 0.323 0.097c1.077 0.326 2.252 1.501 2.578 2.578l0.098 0.323-0.16 0.149c-0.234 0.216-0.379 0.524-0.379 0.866 0 0.328 0.134 0.624 0.349 0.838l0.188 0.188-0.097 0.319c-0.325 1.074-1.501 2.25-2.577 2.575l-0.323 0.098-0.149-0.16c-0.244-0.261-0.48-0.359-0.868-0.359s-0.624 0.098-0.868 0.359l-0.149 0.16-0.323-0.098c-1.077-0.326-2.252-1.501-2.578-2.578l-0.098-0.322 0.16-0.15c0.262-0.244 0.359-0.48 0.359-0.868s-0.097-0.624-0.359-0.868l-0.16-0.149 0.098-0.323c0.313-1.032 1.38-2.137 2.45-2.534 0.401-0.15 0.49-0.153 0.56-0.021zM7.493 24.261c-0.909 0.421-0.885 1.777 0.039 2.163 0.171 0.071 0.6 0.083 3.146 0.081 2.756-0.001 2.963-0.007 3.162-0.099 0.894-0.414 0.894-1.731 0-2.145-0.2-0.092-0.405-0.099-3.173-0.099s-2.974 0.007-3.174 0.099zM23.493 24.261c-0.428 0.199-0.666 0.591-0.666 1.099 0 0.358 0.126 0.633 0.402 0.875 0.254 0.223 0.413 0.281 0.771 0.281s0.517-0.058 0.771-0.281c0.28-0.246 0.403-0.517 0.401-0.886-0.003-0.705-0.486-1.191-1.184-1.188-0.179 0.003-0.349 0.040-0.504 0.103l0.009-0.003z"></path>
</symbol>
<symbol id="water" viewBox="0 0 32 32">
<path d="M15.431 2.602c-0.409 0.146-0.598 0.316-1.311 1.173-2.792 3.362-5.191 7.046-6.536 10.038-1.102 2.452-1.557 4.292-1.557 6.293 0 2.962 0.902 5.337 2.716 7.151 1.411 1.411 3.002 2.195 5.259 2.593 0.763 0.134 3.233 0.134 3.996 0 2.257-0.398 3.848-1.182 5.259-2.593 1.406-1.405 2.208-3.030 2.585-5.231 0.118-0.686 0.164-2.506 0.081-3.182-0.389-3.189-2.085-6.882-5.223-11.377-1.073-1.537-3.175-4.212-3.576-4.549-0.447-0.376-1.155-0.508-1.693-0.316zM16.627 5.4c2.19 2.664 4.282 5.803 5.52 8.28 0.978 1.957 1.61 3.843 1.797 5.359 0.109 0.879 0.058 1.997-0.137 3.014-0.289 1.502-0.981 2.84-1.979 3.822-1.427 1.406-3.399 2.125-5.828 2.125-1.505 0-2.811-0.271-3.973-0.825-2.655-1.264-4.14-4.008-4.011-7.408 0.044-1.159 0.223-2.037 0.697-3.421 0.899-2.623 2.885-6.051 5.469-9.439 0.781-1.024 1.758-2.214 1.818-2.214 0.026 0 0.308 0.318 0.627 0.707zM21.12 19.58c-0.169 0.067-0.415 0.299-0.51 0.481-0.041 0.078-0.097 0.378-0.125 0.667-0.091 0.944-0.339 1.509-0.944 2.15-0.657 0.696-1.342 1.021-2.358 1.116-0.595 0.056-0.779 0.143-1.022 0.484-0.274 0.385-0.159 1.009 0.242 1.314 0.201 0.153 0.209 0.155 0.9 0.148 0.587-0.005 0.771-0.028 1.165-0.147 1.001-0.3 1.79-0.774 2.468-1.482 0.9-0.942 1.376-1.962 1.519-3.26 0.066-0.599 0.041-0.834-0.117-1.091-0.223-0.363-0.805-0.545-1.218-0.38z"></path>
</symbol>
<symbol id="microwave" viewBox="0 0 32 32">
<path d="M4.822 4.377c-0.779 0.093-1.464 0.438-2.069 1.043-0.643 0.643-0.952 1.29-1.050 2.198-0.036 0.338-0.049 3.115-0.038 8.089 0.016 7.013 0.024 7.597 0.11 7.893 0.298 1.024 1.018 1.899 1.932 2.348 0.611 0.301 0.891 0.351 2.141 0.384l1.129 0.029 0.019 0.966c0.020 1.003 0.038 1.094 0.277 1.358 0.181 0.2 0.411 0.292 0.727 0.292s0.546-0.092 0.727-0.292c0.239-0.264 0.257-0.355 0.277-1.365l0.020-0.973h13.952l0.020 0.973c0.020 1.010 0.038 1.101 0.277 1.365 0.181 0.2 0.411 0.292 0.727 0.292s0.546-0.092 0.727-0.292c0.239-0.264 0.257-0.355 0.277-1.358l0.019-0.966 1.129-0.029c1.25-0.033 1.53-0.083 2.141-0.384 0.927-0.455 1.656-1.35 1.933-2.375 0.088-0.323 0.094-0.872 0.094-8.24s-0.006-7.916-0.094-8.24c-0.361-1.285-1.346-2.278-2.599-2.645l-0.027-0.007c-0.3-0.087-1.006-0.094-11.36-0.101-6.072-0.004-11.21 0.013-11.418 0.037zM27.272 6.455c0.387 0.145 0.795 0.553 0.94 0.94 0.107 0.285 0.108 0.383 0.108 7.938 0 7.556-0.001 7.653-0.108 7.939-0.145 0.387-0.553 0.795-0.94 0.94-0.287 0.107-0.367 0.108-11.272 0.108s-10.985-0.001-11.272-0.108c-0.387-0.145-0.795-0.553-0.94-0.94-0.107-0.286-0.108-0.383-0.108-7.939 0-7.555 0.001-7.653 0.108-7.938 0.141-0.377 0.553-0.795 0.925-0.937 0.269-0.104 0.453-0.106 11.272-0.109 10.924-0.002 11-0.002 11.287 0.106zM8.935 9.713c-0.444 0.064-0.853 0.284-1.229 0.66-0.388 0.388-0.593 0.782-0.664 1.28-0.071 0.495-0.071 6.866 0 7.36 0.071 0.498 0.276 0.893 0.664 1.281s0.783 0.593 1.281 0.664c0.498 0.071 8.195 0.071 8.693 0s0.892-0.276 1.281-0.664c0.388-0.388 0.592-0.783 0.664-1.281 0.070-0.494 0.070-6.865 0-7.36-0.072-0.498-0.276-0.892-0.664-1.28s-0.783-0.593-1.281-0.664c-0.461-0.066-8.29-0.063-8.745 0.004zM23.74 9.706c-0.388 0.094-0.674 0.437-0.726 0.87-0.018 0.153-0.026 2.401-0.017 4.997 0.015 4.273 0.025 4.735 0.105 4.88 0.101 0.184 0.28 0.357 0.471 0.456 0.186 0.096 0.686 0.086 0.887-0.018 0.205-0.107 0.433-0.37 0.487-0.562 0.052-0.186 0.052-9.805 0-9.992-0.052-0.182-0.28-0.454-0.46-0.546-0.15-0.068-0.325-0.108-0.509-0.108-0.084 0-0.166 0.008-0.246 0.024l0.008-0.001zM17.556 11.768c0.092 0.084 0.097 0.265 0.097 3.556 0 3.152-0.008 3.476-0.088 3.565-0.084 0.093-0.285 0.098-4.222 0.098-3.772 0-4.143-0.008-4.232-0.089-0.093-0.083-0.098-0.264-0.098-3.555 0-3.152 0.008-3.477 0.089-3.565 0.084-0.093 0.285-0.098 4.222-0.098 3.772 0 4.143 0.008 4.232 0.088z"></path>
</symbol>
<symbol id="bathroom" viewBox="0 0 32 32">
<path d="M8 29.5c0 0.297-0.088 0.587-0.253 0.833s-0.399 0.439-0.673 0.552-0.576 0.143-0.867 0.085c-0.291-0.058-0.558-0.201-0.768-0.41s-0.353-0.477-0.411-0.768c-0.058-0.291-0.028-0.593 0.085-0.867s0.306-0.508 0.552-0.673c0.247-0.165 0.537-0.253 0.833-0.253 0.398 0 0.779 0.158 1.061 0.439s0.439 0.663 0.439 1.061zM10.5 24c-0.297 0-0.587 0.088-0.833 0.253s-0.439 0.399-0.552 0.673c-0.114 0.274-0.143 0.576-0.085 0.867s0.201 0.558 0.411 0.768c0.21 0.21 0.477 0.353 0.768 0.41s0.592 0.028 0.867-0.085 0.508-0.306 0.673-0.552c0.165-0.247 0.253-0.537 0.253-0.833 0-0.398-0.158-0.779-0.439-1.061s-0.663-0.439-1.061-0.439zM2.5 24c-0.297 0-0.587 0.088-0.833 0.253s-0.439 0.399-0.552 0.673c-0.114 0.274-0.143 0.576-0.085 0.867s0.201 0.558 0.411 0.768c0.21 0.21 0.477 0.353 0.768 0.41s0.593 0.028 0.867-0.085c0.274-0.113 0.508-0.306 0.673-0.552s0.253-0.537 0.253-0.833c0-0.398-0.158-0.779-0.439-1.061s-0.663-0.439-1.061-0.439zM6.5 20c-0.297 0-0.587 0.088-0.833 0.253s-0.439 0.399-0.552 0.673c-0.114 0.274-0.143 0.576-0.085 0.867s0.201 0.558 0.411 0.768c0.21 0.21 0.477 0.353 0.768 0.41s0.593 0.028 0.867-0.085c0.274-0.113 0.508-0.306 0.673-0.552s0.253-0.537 0.253-0.833c0-0.398-0.158-0.779-0.439-1.061s-0.663-0.439-1.061-0.439zM32 5c0 0.265-0.105 0.52-0.293 0.707s-0.442 0.293-0.707 0.293h-3.586l-3.481 3.482-2.707 15.849c-0.061 0.362-0.22 0.701-0.461 0.978s-0.553 0.483-0.902 0.595c-0.35 0.112-0.724 0.125-1.080 0.039s-0.683-0.27-0.943-0.529l-12.25-12.25c-0.26-0.26-0.443-0.586-0.53-0.944s-0.073-0.732 0.039-1.082c0.112-0.35 0.319-0.662 0.597-0.903s0.617-0.399 0.98-0.46l15.842-2.709 3.775-3.775c0.093-0.093 0.203-0.166 0.325-0.217s0.252-0.076 0.383-0.076h4c0.265 0 0.52 0.105 0.707 0.293s0.293 0.442 0.293 0.707zM21.776 10.224l-14.776 2.526 12.25 12.25 2.526-14.776z"></path>
</symbol>
<symbol id="star" viewBox="0 0 34 32">
    <path d="M16.123 1.788a1.067 1.067 0 0 1 1.887 0l4.028 7.635c.154.293.436.497.761.553l8.506 1.472a1.066 1.066 0 0 1 .583 1.794l-6.017 6.19c-.23.237-.338.568-.291.895l1.229 8.544a1.066 1.066 0 0 1-1.526 1.109l-7.747-3.809a1.066 1.066 0 0 0-.941 0L8.848 29.98a1.066 1.066 0 0 1-1.526-1.109l1.229-8.544a1.065 1.065 0 0 0-.291-.895l-6.016-6.19a1.066 1.066 0 0 1 .583-1.794l8.506-1.472c.326-.056.607-.261.762-.553l4.028-7.635z"/>
</symbol>
    <symbol id="heart" viewBox="0 0 33 32">
      <path d="m17.333 13.139-1.788-3.578c-.444-.886-1.214-2.16-2.304-3.19-1.072-1.014-2.356-1.704-3.908-1.704-3.352 0-6 2.652-6 5.84 0 2.422 1.108 4.132 3.736 6.74.674.668 1.442 1.39 2.292 2.186 2.216 2.08 4.972 4.668 7.972 8.128 3-3.46 5.756-6.048 7.972-8.128.85-.796 1.62-1.52 2.292-2.186 2.628-2.608 3.736-4.318 3.736-6.74 0-3.188-2.648-5.84-6-5.84-1.554 0-2.836.69-3.908 1.704-1.09 1.03-1.86 2.304-2.304 3.19l-1.788 3.578zm.784 16.584a1.022 1.022 0 0 1-1.216.269 1.04 1.04 0 0 1-.352-.269c-3.202-3.804-6.1-6.524-8.486-8.762-4.13-3.878-6.73-6.316-6.73-10.454 0-4.33 3.58-7.84 8-7.84 3.2 0 5.438 2.1 6.808 4.016.52.73.916 1.432 1.192 1.984.346-.691.745-1.354 1.192-1.984 1.37-1.918 3.608-4.016 6.808-4.016 4.42 0 8 3.51 8 7.84 0 4.138-2.6 6.576-6.73 10.454-2.386 2.24-5.284 4.962-8.486 8.762z"/>
    </symbol>
<symbol id="refrigerator" viewBox="0 0 32 32">
<path d="M23.667 9.333c0-0.265-0.105-0.52-0.293-0.707s-0.442-0.293-0.707-0.293c-0.265 0-0.52 0.105-0.707 0.293s-0.293 0.442-0.293 0.707v2.667c0 0.265 0.105 0.52 0.293 0.707s0.442 0.293 0.707 0.293c0.265 0 0.52-0.105 0.707-0.293s0.293-0.442 0.293-0.707v-2.667zM23.667 18.667c0-0.265-0.105-0.52-0.293-0.707s-0.442-0.293-0.707-0.293c-0.265 0-0.52 0.105-0.707 0.293s-0.293 0.442-0.293 0.707v2.667c0 0.265 0.105 0.52 0.293 0.707s0.442 0.293 0.707 0.293c0.265 0 0.52-0.105 0.707-0.293s0.293-0.442 0.293-0.707v-2.667z"></path>
<path d="M16.075 1.667h-0.149c-2.451 0-4.392 0-5.911 0.204-1.563 0.211-2.828 0.653-3.827 1.651-0.997 0.999-1.44 2.264-1.651 3.827-0.204 1.52-0.204 3.46-0.204 5.911v4.149c0 2.451 0 4.392 0.204 5.911 0.211 1.563 0.653 2.828 1.651 3.827 0.613 0.612 1.325 1.015 2.145 1.284v0.904c0 0.552 0.448 1 1 1h1.333c0.265 0 0.52-0.105 0.707-0.293s0.293-0.442 0.293-0.707v-0.395c1.209 0.061 2.62 0.061 4.259 0.061h0.149c1.64 0 3.049 0 4.259-0.061v0.395c0 0.552 0.448 1 1 1h1.333c0.265 0 0.52-0.105 0.707-0.293s0.293-0.442 0.293-0.707v-0.904c0.82-0.269 1.533-0.672 2.145-1.284 0.997-0.999 1.44-2.264 1.651-3.827 0.204-1.52 0.204-3.46 0.204-5.911v-4.148c0-2.451 0-4.392-0.204-5.911-0.211-1.563-0.653-2.828-1.651-3.827-0.999-0.997-2.264-1.44-3.827-1.651-1.52-0.204-3.46-0.204-5.911-0.204zM7.603 4.936c0.564-0.564 1.337-0.903 2.679-1.083 1.371-0.184 3.176-0.187 5.719-0.187s4.349 0.003 5.72 0.187c1.34 0.18 2.113 0.519 2.677 1.083s0.903 1.337 1.083 2.679c0.184 1.371 0.187 3.176 0.187 5.719v1h-19.333v-1c0-2.543 0.003-4.348 0.187-5.72 0.18-1.34 0.519-2.113 1.083-2.677zM6.333 16.333h19.333v1c0 2.543-0.003 4.349-0.187 5.72-0.18 1.34-0.519 2.113-1.083 2.677s-1.337 0.903-2.679 1.083c-1.371 0.184-3.176 0.187-5.719 0.187s-4.348-0.003-5.72-0.187c-1.34-0.18-2.113-0.519-2.677-1.083s-0.903-1.337-1.083-2.679c-0.184-1.369-0.187-3.176-0.187-5.719v-1z"></path>
</symbol>
<symbol id="tv" viewBox="0 0 32 32">
<path d="M0 8c0 0 0-4 4-4h24c0 0 4 0 4 4v12c0 0 0 4-4 4h-8c0 1.333 0.167 2.333 0.5 3h1.5c0.265 0 0.52 0.105 0.707 0.293s0.293 0.442 0.293 0.707c0 0.265-0.105 0.52-0.293 0.707s-0.442 0.293-0.707 0.293h-12c-0.265 0-0.52-0.105-0.707-0.293s-0.293-0.442-0.293-0.707c0-0.265 0.105-0.52 0.293-0.707s0.442-0.293 0.707-0.293h1.5c0.333-0.667 0.5-1.667 0.5-3h-8c0 0-4 0-4-4v-12zM2.796 6.29c-0.22 0.153-0.395 0.361-0.508 0.604-0.168 0.353-0.266 0.735-0.288 1.126v11.98c0 0.65 0.156 1.004 0.29 1.204 0.14 0.208 0.341 0.377 0.604 0.508 0.338 0.162 0.703 0.259 1.076 0.286l0.050 0.002h23.98c0.65 0 1.004-0.156 1.204-0.29 0.22-0.153 0.395-0.361 0.508-0.604 0.162-0.338 0.259-0.703 0.286-1.076l0.002-0.050v-11.98c0-0.65-0.156-1.004-0.29-1.204-0.153-0.22-0.361-0.395-0.604-0.508-0.353-0.168-0.736-0.266-1.126-0.288h-23.98c-0.65 0-1.004 0.156-1.204 0.29z"></path>
</symbol>
<symbol id="radio" viewBox="0 0 32 32">
<path d="M14 5c0-0.265 0.105-0.52 0.293-0.707s0.442-0.293 0.707-0.293h14c0.265 0 0.52 0.105 0.707 0.293s0.293 0.442 0.293 0.707v2c0 0.265-0.105 0.52-0.293 0.707s-0.442 0.293-0.707 0.293h-14c-0.265 0-0.52-0.105-0.707-0.293s-0.293-0.442-0.293-0.707v-2zM0 24c0-1.591 0.632-3.117 1.757-4.243s2.651-1.757 4.243-1.757 3.117 0.632 4.243 1.757c1.125 1.125 1.757 2.651 1.757 4.243s-0.632 3.117-1.757 4.243c-1.125 1.125-2.651 1.757-4.243 1.757s-3.117-0.632-4.243-1.757c-1.125-1.125-1.757-2.651-1.757-4.243zM14 21c0-0.265 0.105-0.52 0.293-0.707s0.442-0.293 0.707-0.293h14c0.265 0 0.52 0.105 0.707 0.293s0.293 0.442 0.293 0.707v2c0 0.265-0.105 0.52-0.293 0.707s-0.442 0.293-0.707 0.293h-14c-0.265 0-0.52-0.105-0.707-0.293s-0.293-0.442-0.293-0.707v-2zM14 11c0-0.265 0.105-0.52 0.293-0.707s0.442-0.293 0.707-0.293h10c0.265 0 0.52 0.105 0.707 0.293s0.293 0.442 0.293 0.707-0.105 0.52-0.293 0.707c-0.188 0.188-0.442 0.293-0.707 0.293h-10c-0.265 0-0.52-0.105-0.707-0.293s-0.293-0.442-0.293-0.707zM14 27c0-0.265 0.105-0.52 0.293-0.707s0.442-0.293 0.707-0.293h10c0.265 0 0.52 0.105 0.707 0.293s0.293 0.442 0.293 0.707-0.105 0.52-0.293 0.707c-0.188 0.188-0.442 0.293-0.707 0.293h-10c-0.265 0-0.52-0.105-0.707-0.293s-0.293-0.442-0.293-0.707zM6 2c-0.788 0-1.568 0.155-2.296 0.457s-1.389 0.744-1.947 1.301c-0.557 0.557-0.999 1.219-1.301 1.947s-0.457 1.508-0.457 2.296c0 0.788 0.155 1.568 0.457 2.296s0.744 1.389 1.301 1.947c0.557 0.557 1.219 0.999 1.947 1.301s1.508 0.457 2.296 0.457c1.591 0 3.117-0.632 4.243-1.757s1.757-2.651 1.757-4.243c0-1.591-0.632-3.117-1.757-4.243s-2.651-1.757-4.243-1.757zM6 11c-0.796 0-1.559-0.316-2.121-0.879s-0.879-1.326-0.879-2.121c0-0.796 0.316-1.559 0.879-2.121s1.326-0.879 2.121-0.879c0.796 0 1.559 0.316 2.121 0.879s0.879 1.326 0.879 2.121c0 0.796-0.316 1.559-0.879 2.121s-1.326 0.879-2.121 0.879z"></path>
</symbol>
<symbol id="map" viewBox="0 0 32 32">
<path stroke-linejoin="miter" stroke-linecap="butt" stroke-miterlimit="4" stroke-width="1.6" d="M10.961 0.805c0.026-0.005 0.052-0.005 0.078 0l9.961 1.991 9.963-1.991c0.029-0.006 0.059-0.006 0.087 0.002l0.078 0.039c0.022 0.019 0.041 0.042 0.053 0.069s0.019 0.055 0.019 0.084v28.002c-0 0.046-0.016 0.091-0.045 0.127s-0.071 0.060-0.116 0.069l-10 2c-0.026 0.005-0.052 0.005-0.078 0l-9.961-1.992-0.156 0.033-9.805 1.959c-0.029 0.006-0.059 0.005-0.088-0.002s-0.055-0.022-0.078-0.041c-0.023-0.019-0.042-0.042-0.055-0.069l-0.019-0.086v-27.998l0.011-0.067c0.008-0.022 0.020-0.041 0.034-0.059 0.029-0.036 0.070-0.060 0.116-0.069l10-2zM9.844 1.436l-8.644 1.728v27.592l9.6-1.92v-27.592l-0.956 0.192zM29.844 1.436l-8.644 1.728v27.592l9.6-1.92v-27.592l-0.956 0.192zM20.8 3.164l-9.6-1.92v27.592l0.644 0.128 8.956 1.792v-27.592z"></path>
</symbol>
<symbol id="ac" viewBox="0 0 32 32">
<path d="M25 4c-1.326 0-2.598 0.527-3.535 1.464s-1.465 2.209-1.465 3.536c0 0.265-0.105 0.52-0.293 0.707s-0.442 0.293-0.707 0.293c-0.265 0-0.52-0.105-0.707-0.293s-0.293-0.442-0.293-0.707c0-1.384 0.41-2.738 1.18-3.889s1.862-2.048 3.142-2.578c1.279-0.53 2.687-0.668 4.044-0.398s2.605 0.937 3.584 1.916c0.979 0.979 1.646 2.226 1.916 3.584s0.131 2.765-0.398 4.044c-0.53 1.279-1.427 2.372-2.578 3.142s-2.505 1.18-3.889 1.18h-24c-0.265 0-0.52-0.105-0.707-0.293s-0.293-0.442-0.293-0.707c0-0.265 0.105-0.52 0.293-0.707s0.442-0.293 0.707-0.293h24c1.326 0 2.598-0.527 3.535-1.464s1.465-2.209 1.465-3.536-0.527-2.598-1.465-3.536c-0.938-0.938-2.209-1.464-3.535-1.464zM11 6c-0.53 0-1.039 0.211-1.414 0.586s-0.586 0.884-0.586 1.414c0 0.265-0.105 0.52-0.293 0.707s-0.442 0.293-0.707 0.293c-0.265 0-0.52-0.105-0.707-0.293s-0.293-0.442-0.293-0.707c0-0.791 0.235-1.564 0.674-2.222s1.064-1.17 1.795-1.473c0.731-0.303 1.535-0.382 2.311-0.228s1.489 0.535 2.048 1.095 0.94 1.272 1.095 2.048c0.154 0.776 0.075 1.58-0.228 2.311s-0.815 1.356-1.473 1.795-1.431 0.674-2.222 0.674h-10c-0.265 0-0.52-0.105-0.707-0.293s-0.293-0.442-0.293-0.707c0-0.265 0.105-0.52 0.293-0.707s0.442-0.293 0.707-0.293h10c0.53 0 1.039-0.211 1.414-0.586s0.586-0.884 0.586-1.414c0-0.53-0.211-1.039-0.586-1.414s-0.884-0.586-1.414-0.586zM0 19c0-0.265 0.105-0.52 0.293-0.707s0.442-0.293 0.707-0.293h20.084c1.187 0 2.347 0.352 3.333 1.011s1.756 1.596 2.21 2.693c0.454 1.096 0.573 2.303 0.341 3.467s-0.803 2.233-1.642 3.072c-0.839 0.839-1.908 1.411-3.072 1.642s-2.37 0.113-3.467-0.341-2.033-1.223-2.693-2.21c-0.659-0.987-1.011-2.147-1.011-3.333 0-0.265 0.105-0.52 0.293-0.707s0.442-0.293 0.707-0.293c0.265 0 0.52 0.105 0.707 0.293s0.293 0.442 0.293 0.707c0 0.791 0.235 1.564 0.674 2.222s1.064 1.171 1.795 1.473c0.731 0.303 1.535 0.382 2.311 0.228s1.489-0.535 2.048-1.095 0.94-1.272 1.095-2.048c0.154-0.776 0.075-1.58-0.228-2.311s-0.815-1.356-1.473-1.795c-0.658-0.439-1.431-0.674-2.222-0.674h-20.084c-0.265 0-0.52-0.105-0.707-0.293s-0.293-0.442-0.293-0.707z"></path>
</symbol>
</defs>
</svg>
